<svg width="251" height="200" viewBox="0 0 251 200" fill="none" xmlns="http://www.w3.org/2000/svg">
<g clip-path="url(#clip0_19_703)">
<path d="M27.6889 26.1373C27.2154 12.5392 37.8108 0 52.1325 0H198.886C213.207 0 223.803 12.5392 223.329 26.1373C222.874 39.1995 223.465 56.1201 227.724 69.9167C231.996 83.7559 239.201 92.5034 251 93.6275V106.373C239.201 107.497 231.996 116.244 227.724 130.083C223.465 143.88 222.874 160.8 223.329 173.863C223.803 187.461 213.207 200 198.886 200H52.1325C37.8108 200 27.2154 187.461 27.6894 173.863C28.1439 160.8 27.5531 143.88 23.294 130.083C19.0221 116.244 11.7999 107.497 0 106.373V93.6275C11.7995 92.5034 19.0221 83.7559 23.294 69.9167C27.5531 56.1201 28.1439 39.1995 27.6889 26.1373Z" fill="url(#paint0_linear_19_703)"/>
<g filter="url(#filter0_d_19_703)">
<path d="M130.943 153.165C154.13 153.165 168.102 141.813 168.102 123.089C168.102 108.936 158.132 98.6892 143.329 97.0672V96.4775C154.205 94.7083 162.74 84.6093 162.74 73.3309C162.74 57.2608 150.051 46.7927 130.717 46.7927H87.2131V153.165H130.943ZM104.131 60.2829H126.638C138.874 60.2829 145.822 65.7378 145.822 75.6157C145.822 86.1574 137.741 92.0544 123.088 92.0544H104.131V60.2829ZM104.131 139.676V104.66H126.487C142.498 104.66 150.806 110.557 150.806 122.057C150.806 133.557 142.725 139.676 127.469 139.676H104.131Z" fill="url(#paint1_linear_19_703)"/>
<path d="M130.943 153.165C154.13 153.165 168.102 141.813 168.102 123.089C168.102 108.936 158.132 98.6892 143.329 97.0672V96.4775C154.205 94.7083 162.74 84.6093 162.74 73.3309C162.74 57.2608 150.051 46.7927 130.717 46.7927H87.2131V153.165H130.943ZM104.131 60.2829H126.638C138.874 60.2829 145.822 65.7378 145.822 75.6157C145.822 86.1574 137.741 92.0544 123.088 92.0544H104.131V60.2829ZM104.131 139.676V104.66H126.487C142.498 104.66 150.806 110.557 150.806 122.057C150.806 133.557 142.725 139.676 127.469 139.676H104.131Z" stroke="white"/>
</g>
</g>
<defs>
<filter id="filter0_d_19_703" x="70.7131" y="34.2927" width="113.889" height="139.373" filterUnits="userSpaceOnUse" color-interpolation-filters="sRGB">
<feFlood flood-opacity="0" result="BackgroundImageFix"/>
<feColorMatrix in="SourceAlpha" type="matrix" values="0 0 0 0 0 0 0 0 0 0 0 0 0 0 0 0 0 0 127 0" result="hardAlpha"/>
<feOffset dy="4"/>
<feGaussianBlur stdDeviation="8"/>
<feColorMatrix type="matrix" values="0 0 0 0 0 0 0 0 0 0 0 0 0 0 0 0 0 0 0.15 0"/>
<feBlend mode="normal" in2="BackgroundImageFix" result="effect1_dropShadow_19_703"/>
<feBlend mode="normal" in="SourceGraphic" in2="effect1_dropShadow_19_703" result="shape"/>
</filter>
<linearGradient id="paint0_linear_19_703" x1="37.2965" y1="5.29314" x2="256.615" y2="179.402" gradientUnits="userSpaceOnUse">
<stop stop-color="#9013FE"/>
<stop offset="1" stop-color="#6610F2"/>
</linearGradient>
<linearGradient id="paint1_linear_19_703" x1="94.8642" y1="53.7941" x2="143.885" y2="136.705" gradientUnits="userSpaceOnUse">
<stop stop-color="white"/>
<stop offset="1" stop-color="#F1E5FC"/>
</linearGradient>
<clipPath id="clip0_19_703">
<rect width="251" height="200" fill="white"/>
</clipPath>
</defs>
</svg>
