<svg width="200" height="200" viewBox="0 0 200 200" fill="none" xmlns="http://www.w3.org/2000/svg">
<path d="M41.8247 158.394L7.85392 124.423C3.82472 120.292 1.32837 114.453 1.32837 108.745C1.32837 106.102 2.81742 101.971 3.94151 99.6058L35.2992 34.292L41.8247 158.394Z" fill="#01579B"/>
<path d="M158.102 40.8175L124.131 6.84671C121.168 3.86861 114.993 0.321167 109.766 0.321167C105.27 0.321167 100.861 1.22628 98.0145 2.93431L35.3137 34.292L158.102 40.8175Z" fill="#40C4FF"/>
<path d="M82.3212 198.891H164.628V163.62L103.226 144.015L47.0511 163.62L82.3212 198.891Z" fill="#40C4FF"/>
<path d="M35.2991 140.102C35.2991 150.584 36.6129 153.153 41.8246 158.394L47.0509 163.62H164.628L107.153 98.3066L35.2991 34.292V140.102Z" fill="#29B6F6"/>
<path d="M139.81 34.2774H35.2991L164.628 163.606H199.898V82.6131L158.088 40.8029C152.219 34.9197 147.007 34.2774 139.81 34.2774Z" fill="#01579B"/>
<path opacity="0.2" d="M43.1387 159.693C37.9125 154.453 36.6132 149.285 36.6132 140.102V35.5912L35.3139 34.292V140.102C35.2993 149.285 35.2993 151.825 43.1387 159.693Z" fill="#757575"/>
<path opacity="0.2" d="M198.599 81.3139V162.307H163.328L164.628 163.62H199.898V82.6131L198.599 81.3139Z" fill="#263238"/>
<path opacity="0.2" d="M158.102 40.8175C151.62 34.3358 146.321 34.292 138.511 34.292H35.3137L36.613 35.5912H138.511C142.409 35.5912 152.248 34.9343 158.102 40.8175Z" fill="#757575"/>
<path opacity="0.2" d="M198.598 81.3139L158.102 40.8175L124.131 6.84671C121.168 3.86861 114.993 0.321167 109.766 0.321167C105.27 0.321167 100.861 1.22628 98.0144 2.93431L35.3137 34.292L3.95603 99.6058C2.83195 101.985 1.3429 106.117 1.3429 108.745C1.3429 114.453 3.85384 120.277 7.86844 124.423L39.1677 155.504C39.9122 156.423 40.7881 157.358 41.8246 158.394L43.1239 159.693L47.0363 163.606L81.0071 197.577L82.3064 198.876H163.299H164.598V163.606H199.869V163.518V82.6131L198.598 81.3139Z" fill="url(#paint0_radial_12_221)"/>
<defs>
<radialGradient id="paint0_radial_12_221" cx="0" cy="0" r="1" gradientUnits="userSpaceOnUse" gradientTransform="translate(100.606 99.6017) scale(99.2701 99.2701)">
<stop stop-color="white" stop-opacity="0.1"/>
<stop offset="1" stop-color="white" stop-opacity="0"/>
</radialGradient>
</defs>
</svg>
