<svg width="133" height="200" viewBox="0 0 133 200" fill="none" xmlns="http://www.w3.org/2000/svg">
<g clip-path="url(#clip0_22_1314)">
<path d="M33.2565 200C51.6069 200 66.4999 185.067 66.4999 166.667V133.333H33.2565C14.9062 133.333 0.0131836 148.267 0.0131836 166.667C0.0131836 185.067 14.9062 200 33.2565 200Z" fill="#0ACF83"/>
<path d="M0.0131836 100C0.0131836 81.6 14.9062 66.6667 33.2565 66.6667H66.4999V133.333H33.2565C14.9062 133.333 0.0131836 118.4 0.0131836 100Z" fill="#A259FF"/>
<path d="M0.0131836 33.3333C0.0131836 14.9333 14.9062 0 33.2565 0H66.4999V66.6667H33.2565C14.9062 66.6667 0.0131836 51.7333 0.0131836 33.3333Z" fill="#F24E1E"/>
<path d="M66.5 0H99.7434C118.094 0 132.987 14.9333 132.987 33.3333C132.987 51.7333 118.094 66.6667 99.7434 66.6667H66.5V0Z" fill="#FF7262"/>
<path d="M132.987 100C132.987 118.4 118.094 133.333 99.7434 133.333C81.393 133.333 66.5 118.4 66.5 100C66.5 81.6 81.393 66.6667 99.7434 66.6667C118.094 66.6667 132.987 81.6 132.987 100Z" fill="#1ABCFE"/>
</g>
<defs>
<clipPath id="clip0_22_1314">
<rect width="133" height="200" fill="white"/>
</clipPath>
</defs>
</svg>
