<svg width="160" height="200" viewBox="0 0 160 200" fill="none" xmlns="http://www.w3.org/2000/svg">
<g clip-path="url(#clip0_23_1338)">
<path d="M50.224 193.989C58.5651 197.346 67.6142 199.339 77.1158 199.67C89.9748 200.119 102.203 197.46 113.135 192.409C100.026 187.258 88.1534 179.726 78.0209 170.359C71.4529 180.878 61.7385 189.185 50.224 193.989Z" fill="#FF9100"/>
<path d="M78.0191 170.362C54.8897 148.967 40.8584 118.001 42.0442 84.0365C42.0828 82.9336 42.1409 81.8313 42.209 80.7294C38.0666 79.6579 33.742 79.004 29.2915 78.8486C22.9211 78.626 16.7519 79.4162 10.9276 81.0566C4.75333 91.874 1.02736 104.286 0.563191 117.58C-0.634727 151.89 20.1247 181.868 50.2222 193.992C61.7367 189.188 71.4508 180.89 78.0191 170.362Z" fill="#FFC400"/>
<path d="M78.0201 170.361C83.3976 161.754 86.658 151.663 87.0376 140.792C88.0361 112.194 68.814 87.5931 42.21 80.7283C42.142 81.8302 42.0837 82.9325 42.0453 84.0354C40.8593 118 54.8906 148.966 78.0201 170.361Z" fill="#FF9100"/>
<path d="M84.0624 0.342072C68.9104 12.4826 56.9456 28.491 49.7067 46.9322C45.5623 57.4952 42.9579 68.8415 42.1975 80.7353C68.8016 87.6001 88.0237 112.201 87.0251 140.799C86.6455 151.67 83.3755 161.751 78.0076 170.368C88.1398 179.744 100.012 187.267 113.121 192.418C139.433 180.254 158.102 154.078 159.183 123.116C159.883 103.056 152.177 85.1779 141.288 70.0869C129.789 54.1267 84.0624 0.342072 84.0624 0.342072Z" fill="#DD2C00"/>
</g>
<defs>
<clipPath id="clip0_23_1338">
<rect width="160" height="200" fill="white"/>
</clipPath>
</defs>
</svg>
