<svg width="200" height="200" viewBox="0 0 200 200" fill="none" xmlns="http://www.w3.org/2000/svg">
<g clip-path="url(#clip0_14_617)">
<mask id="mask0_14_617" style="mask-type:luminance" maskUnits="userSpaceOnUse" x="0" y="0" width="200" height="200">
<path d="M200 0H0V200H200V0Z" fill="white"/>
</mask>
<g mask="url(#mask0_14_617)">
<path d="M200 0H0V200H200V0Z" fill="#F7DF1E"/>
<path d="M134.349 156.251C138.378 162.829 143.619 167.663 152.889 167.663C160.676 167.663 165.651 163.771 165.651 158.393C165.651 151.949 160.54 149.667 151.968 145.917L147.27 143.901C133.708 138.124 124.699 130.886 124.699 115.584C124.699 101.489 135.438 90.7587 152.222 90.7587C164.171 90.7587 172.762 94.9173 178.953 105.807L164.317 115.203C161.095 109.425 157.619 107.149 152.222 107.149C146.717 107.149 143.229 110.641 143.229 115.203C143.229 120.841 146.721 123.124 154.784 126.616L159.483 128.629C175.451 135.476 184.467 142.457 184.467 158.153C184.467 175.073 171.175 184.343 153.324 184.343C135.87 184.343 124.593 176.025 119.076 165.124L134.349 156.251ZM67.9586 157.879C70.9113 163.117 73.5966 167.546 80.0539 167.546C86.2286 167.546 90.1239 165.13 90.1239 155.737V91.832H108.917V155.991C108.917 175.451 97.5079 184.308 80.8539 184.308C65.8063 184.308 57.092 176.521 52.6603 167.141L67.9586 157.879Z" fill="black"/>
</g>
</g>
<defs>
<clipPath id="clip0_14_617">
<rect width="200" height="200" fill="white"/>
</clipPath>
</defs>
</svg>
