<svg width="192" height="200" viewBox="0 0 192 200" fill="none" xmlns="http://www.w3.org/2000/svg">
<path fill-rule="evenodd" clip-rule="evenodd" d="M190.564 44.4764C190.635 44.7386 190.67 45.0087 190.671 45.2803V87.4803C190.671 88.0219 190.528 88.5539 190.258 89.0226C189.987 89.4913 189.597 89.88 189.128 90.1495L153.765 110.541V150.961C153.765 152.061 153.181 153.076 152.229 153.63L78.4128 196.191C78.2438 196.287 78.0595 196.349 77.8752 196.414C77.8061 196.437 77.7408 196.48 77.6678 196.499C77.1518 196.636 76.6094 196.636 76.0934 196.499C76.009 196.476 75.9322 196.43 75.8515 196.399C75.6826 196.337 75.5059 196.284 75.3446 196.191L1.54368 153.63C1.07484 153.361 0.685289 152.972 0.414276 152.503C0.143265 152.035 0.00037148 151.503 0 150.961V24.3611C0 24.0841 0.0384 23.8149 0.10752 23.5534C0.13056 23.4649 0.18432 23.3841 0.21504 23.2957C0.27264 23.1341 0.3264 22.9687 0.41088 22.8187C0.46848 22.7187 0.55296 22.638 0.62208 22.5457C0.7104 22.4226 0.79104 22.2957 0.89472 22.188C0.98304 22.0995 1.09824 22.0341 1.19808 21.9572C1.30944 21.8649 1.40928 21.7649 1.536 21.6918L38.4422 0.411043C38.9095 0.141737 39.4391 0 39.9782 0C40.5174 0 41.047 0.141737 41.5142 0.411043L78.4166 21.6918H78.4243C78.5472 21.7687 78.6509 21.8649 78.7622 21.9534C78.8621 22.0303 78.9734 22.0995 79.0618 22.1841C79.1693 22.2957 79.2461 22.4226 79.3382 22.5457C79.4035 22.638 79.4918 22.7187 79.5456 22.8187C79.6339 22.9726 79.6838 23.1341 79.7453 23.2957C79.776 23.3841 79.8298 23.4649 79.8528 23.5572C79.9235 23.8193 79.9596 24.0895 79.9603 24.3611V103.434L110.711 85.6995V45.2764C110.711 45.0072 110.749 44.7341 110.819 44.4764C110.845 44.3841 110.895 44.3034 110.926 44.2149C110.988 44.0534 111.041 43.888 111.126 43.738C111.183 43.638 111.268 43.5572 111.333 43.4649C111.425 43.3418 111.502 43.2149 111.61 43.1072C111.698 43.0187 111.809 42.9534 111.909 42.8764C112.024 42.7841 112.124 42.6841 112.247 42.6111L149.157 21.3303C149.625 21.0606 150.154 20.9187 150.693 20.9187C151.233 20.9187 151.762 21.0606 152.229 21.3303L189.132 42.6111C189.262 42.688 189.362 42.7841 189.477 42.8726C189.573 42.9495 189.684 43.0187 189.773 43.1034C189.88 43.2149 189.957 43.3418 190.049 43.4649C190.118 43.5572 190.203 43.638 190.257 43.738C190.345 43.888 190.395 44.0534 190.456 44.2149C190.491 44.3034 190.541 44.3841 190.564 44.4764ZM184.52 85.6995V50.6072L171.606 58.0534L153.765 68.3418V103.434L184.524 85.6995H184.52ZM147.617 149.18V114.064L130.068 124.103L79.9565 152.749V188.195L147.617 149.18ZM6.15168 29.688V149.18L73.8048 188.191V152.753L38.4614 132.718L38.4499 132.711L38.4346 132.703C38.3155 132.634 38.2157 132.534 38.1043 132.449C38.0083 132.372 37.897 132.311 37.8125 132.226L37.8048 132.214C37.705 132.118 37.6358 131.999 37.5514 131.891C37.4746 131.788 37.3824 131.699 37.321 131.591L37.3171 131.58C37.248 131.464 37.2058 131.326 37.1558 131.195C37.1059 131.08 37.0406 130.972 37.0099 130.849C36.9715 130.703 36.9638 130.545 36.9485 130.395C36.9331 130.28 36.9024 130.164 36.9024 130.049V130.041V47.4226L19.0656 37.1303L6.15168 29.688ZM39.9821 6.63412L9.2352 24.3611L39.9744 42.088L70.7174 24.3572L39.9744 6.63412H39.9821ZM55.9718 117.264L73.8086 106.98V29.688L60.8947 37.1341L43.0541 47.4226V124.714L55.9718 117.264ZM150.693 27.5534L119.95 45.2803L150.693 63.0072L181.432 45.2764L150.693 27.5534ZM147.617 68.3418L129.777 58.0534L116.863 50.6072V85.6995L134.7 95.9841L147.617 103.434V68.3418ZM76.8768 147.422L121.97 121.637L144.511 108.753L113.791 91.038L78.4205 111.434L46.1837 130.022L76.8768 147.422Z" fill="#FF2D20"/>
</svg>
