<svg width="291" height="200" viewBox="0 0 291 200" fill="none" xmlns="http://www.w3.org/2000/svg">
<path d="M70.6257 180.71H59.4509C59.0558 161.866 57.9674 144.15 56.1881 127.55H56.0888L39.0751 180.71H30.5672L13.655 127.55H13.5578C12.3032 143.488 11.5129 161.208 11.1847 180.71H0.998901C1.65535 156.995 3.30511 134.761 5.9417 114.008H19.7919L35.9116 163.02H36.0109L52.23 114.008H65.482C68.3842 138.317 70.0988 160.552 70.6257 180.71ZM119.088 131.497C114.539 156.164 108.536 174.087 101.086 185.275C95.2814 193.887 88.922 198.197 81.9969 198.197C80.1506 198.197 77.8725 197.64 75.1733 196.536V190.588C76.4927 190.778 78.0409 190.886 79.8203 190.886C83.055 190.886 85.6549 189.997 87.6372 188.215C90.0082 186.045 91.1937 183.605 91.1937 180.906C91.1937 179.055 90.2695 175.271 88.4254 169.542L76.1623 131.495H87.1405L95.9421 159.95C97.9201 166.411 98.745 170.922 98.4146 173.492C103.228 160.649 106.59 146.646 108.505 131.493H119.088V131.497Z" fill="#5D87A1"/>
<path d="M267.837 180.71H236.094V114.008H246.772V172.499H267.837V180.71ZM227.785 182.321L215.511 176.27C216.599 175.377 217.64 174.411 218.577 173.291C223.794 167.168 226.396 158.114 226.396 146.122C226.396 124.055 217.729 113.016 200.387 113.016C191.883 113.016 185.25 115.816 180.505 121.418C175.293 127.545 172.691 136.567 172.691 148.495C172.691 160.22 174.997 168.821 179.611 174.277C183.833 179.219 190.197 181.694 198.707 181.694C201.881 181.694 204.794 181.305 207.448 180.522L223.427 189.816L227.785 182.321ZM188.024 167.363C185.321 163.018 183.969 156.041 183.969 146.422C183.969 129.627 189.076 121.22 199.301 121.22C204.645 121.22 208.562 123.231 211.067 127.243C213.766 131.594 215.124 138.509 215.124 147.994C215.124 164.927 210.013 173.394 199.795 173.394C194.448 173.397 190.531 171.392 188.024 167.363ZM168.037 162.222C168.037 167.878 165.96 172.519 161.81 176.154C157.655 179.774 152.084 181.588 145.103 181.588C138.573 181.588 132.241 179.504 126.113 175.358L128.983 169.63C134.256 172.268 139.03 173.58 143.317 173.58C147.34 173.58 150.484 172.689 152.764 170.922C155.042 169.149 156.4 166.661 156.4 163.516C156.4 159.553 153.634 156.166 148.56 153.329C143.88 150.762 134.522 145.395 134.522 145.395C129.449 141.701 126.91 137.736 126.91 131.204C126.91 125.798 128.804 121.434 132.593 118.113C136.387 114.78 141.283 113.119 147.284 113.119C153.481 113.119 159.115 114.778 164.189 118.062L161.615 123.792C157.275 121.949 152.991 121.028 148.765 121.028C145.342 121.028 142.699 121.85 140.862 123.5C139.009 125.144 137.866 127.248 137.866 129.828C137.866 133.771 140.691 137.201 145.904 140.094C150.646 142.666 160.238 148.126 160.238 148.126C165.44 151.813 168.037 155.741 168.037 162.222Z" fill="#F8981D"/>
<path d="M281.242 91.6671C274.786 91.5031 269.787 92.1525 265.591 93.9258C264.38 94.409 262.453 94.409 262.285 95.9386C262.939 96.5857 263.015 97.6299 263.583 98.523C264.55 100.135 266.237 102.303 267.776 103.433C269.467 104.727 271.164 106.009 272.944 107.137C276.081 109.077 279.638 110.205 282.695 112.138C284.477 113.262 286.248 114.716 288.031 115.926C288.908 116.571 289.469 117.617 290.607 118.021V117.775C290.037 117.05 289.875 116.001 289.316 115.195L286.893 112.86C284.552 109.719 281.644 106.977 278.506 104.725C275.924 102.948 270.275 100.531 269.227 97.5587L269.063 97.3947C270.838 97.2286 272.944 96.5857 274.63 96.0917C277.375 95.369 279.877 95.533 282.693 94.8103C283.989 94.4867 285.274 94.0811 286.574 93.682V92.955C285.114 91.5031 284.073 89.5745 282.538 88.2025C278.431 84.658 273.905 81.1912 269.227 78.2896C266.723 76.6738 263.501 75.634 260.834 74.2598C259.873 73.7744 258.253 73.5349 257.688 72.7281C256.241 70.9548 255.427 68.6206 254.377 66.5215C252.045 62.0926 249.78 57.1782 247.768 52.4947C246.312 49.3537 245.427 46.217 243.652 43.3111C235.338 29.6122 226.31 21.3152 212.434 13.1714C209.452 11.4757 205.904 10.753 202.114 9.86421L196.061 9.54493C194.77 8.97972 193.477 7.44587 192.349 6.72101C187.746 3.82159 175.893 -2.46264 172.507 5.83436C170.326 11.0788 175.733 16.2347 177.59 18.8947C178.961 20.7413 180.738 22.8426 181.697 24.9395C182.265 26.3093 182.425 27.7634 182.993 29.2109C184.284 32.7575 185.491 36.7032 187.189 40.0126C188.074 41.6996 189.039 43.4729 190.171 45.0002C190.818 45.8934 191.946 46.2882 192.192 47.7443C191.067 49.3494 190.978 51.772 190.333 53.787C187.43 62.8929 188.564 74.1735 192.678 80.8655C193.965 82.8804 197.035 87.3158 201.142 85.6158C204.779 84.1661 203.973 79.5732 205.018 75.5455C205.258 74.5726 205.101 73.934 205.584 73.2955V73.453C206.709 75.7073 207.845 77.8797 208.888 80.1406C211.391 84.0863 215.748 88.1981 219.378 90.9315C221.311 92.3898 222.842 94.8836 225.263 95.7746V95.533H225.103C224.613 94.8103 223.896 94.4867 223.252 93.9258C221.797 92.4739 220.186 90.7006 219.057 89.0913C215.675 84.576 212.682 79.5776 210.026 74.4194C208.726 71.917 207.605 69.1815 206.558 66.6833C206.07 65.719 206.07 64.265 205.26 63.7796C204.047 65.5507 202.278 67.0846 201.393 69.2548C199.858 72.7259 199.698 76.9953 199.128 81.435L198.81 81.5903C196.241 80.9453 195.347 78.2896 194.371 76.0352C191.954 70.3098 191.548 61.1196 193.645 54.514C194.207 52.8248 196.636 47.5049 195.666 45.8955C195.18 44.3531 193.565 43.475 192.68 42.2605C191.639 40.7331 190.499 38.8001 189.773 37.1045C187.839 32.5936 186.865 27.5951 184.781 23.0863C183.807 20.9851 182.116 18.8106 180.747 16.8755C179.21 14.7009 177.519 13.1692 176.303 10.5912C175.902 9.70457 175.338 8.25486 175.984 7.29054C176.141 6.64335 176.469 6.40173 177.113 6.23993C178.158 5.3576 181.144 6.47939 182.192 6.96479C185.182 8.17288 187.683 9.30115 190.179 10.9925C191.309 11.8015 192.52 13.3332 193.969 13.7366H195.666C198.242 14.2975 201.147 13.8919 203.572 14.6211C207.845 15.9931 211.717 18.0059 215.189 20.1783C225.755 26.8724 234.468 36.384 240.35 47.7443C241.315 49.5953 241.726 51.2909 242.607 53.2217C244.306 57.1739 246.407 61.2038 248.094 65.0718C249.789 68.8579 251.404 72.7238 253.825 75.8691C255.032 77.5605 259.882 78.4471 262.056 79.3338C263.665 80.0565 266.17 80.6993 267.621 81.586C270.365 83.2752 273.099 85.2146 275.68 87.072C276.964 88.0385 281.002 90.0534 281.242 91.6671ZM198.957 21.6323C197.843 21.6208 196.733 21.7571 195.655 22.0379V22.1997H195.811C196.461 23.4876 197.59 24.3807 198.396 25.5047C199.046 26.7969 199.609 28.0783 200.246 29.3684L200.402 29.2088C201.54 28.4041 202.105 27.114 202.105 25.1789C201.615 24.6094 201.54 24.0528 201.132 23.4876C200.657 22.6808 199.609 22.2795 198.957 21.6323Z" fill="#5D87A1"/>
<path d="M288.925 180.699H290.597V172.527H288.09L286.045 178.104L283.823 172.527H281.408V180.699H282.987V174.482H283.076L285.403 180.699H286.606L288.925 174.482V180.699ZM275.462 180.699H277.23V173.912H279.545V172.525H273.05V173.912H275.457L275.462 180.699Z" fill="#F8981D"/>
</svg>
