<svg width="292" height="200" viewBox="0 0 292 200" fill="none" xmlns="http://www.w3.org/2000/svg">
<g clip-path="url(#clip0_20_1008)">
<mask id="mask0_20_1008" style="mask-type:luminance" maskUnits="userSpaceOnUse" x="0" y="0" width="292" height="200">
<path d="M292 0H0V200H292V0Z" fill="white"/>
</mask>
<g mask="url(#mask0_20_1008)">
<mask id="mask1_20_1008" style="mask-type:luminance" maskUnits="userSpaceOnUse" x="40" y="2" width="72" height="91">
<path d="M40.6323 27.4495C40.6323 27.4495 54.7854 11.929 64.5876 5.49655C67.7107 3.44903 90.9388 -8.66046 105.855 33.0168C114.015 55.8359 114.152 72.8343 95.6028 80.0835C84.4955 84.4255 88.4653 92.5542 88.4653 92.5542" fill="white"/>
</mask>
<g mask="url(#mask1_20_1008)">
<path d="M40.6323 27.4495C40.6323 27.4495 54.7854 11.929 64.5876 5.49655C67.7107 3.44903 90.9388 -8.66046 105.855 33.0168C114.015 55.8359 114.152 72.8343 95.6028 80.0835C84.4955 84.4255 88.4653 92.5542 88.4653 92.5542" fill="url(#paint0_linear_20_1008)"/>
</g>
<path d="M63.2318 3.60599C53.2885 10.1306 39.4068 25.302 38.8212 25.9432C37.9532 26.8972 38.055 28.3476 39.0545 29.1775C40.0514 30.0064 41.5665 29.911 42.4356 28.9558C42.5768 28.801 56.5077 13.5757 65.9458 7.38485C66.2285 7.19602 73.1137 2.78259 81.4992 5.43834C90.3175 8.23241 97.9568 18.0264 103.585 33.7578C112.545 58.8057 109.887 72.0295 94.6972 77.9613C90.315 79.6784 87.4299 82.1596 86.1248 85.351C84.4024 89.5603 86.2165 93.3622 86.2949 93.5247C86.8489 94.6654 88.2567 95.1495 89.4521 94.6269C90.6508 94.1098 91.1828 92.7562 90.6486 91.6067C90.6395 91.5847 89.6149 89.3296 90.6137 86.9672C91.4348 85.0172 93.4185 83.4111 96.5115 82.2057C119.427 73.246 114.752 50.8153 108.12 32.2724C101.899 14.8899 93.4519 4.40085 83.0099 1.08968C72.5717 -2.2182 64.1546 3.00326 63.2318 3.60599Z" fill="#363254"/>
<mask id="mask2_20_1008" style="mask-type:luminance" maskUnits="userSpaceOnUse" x="230" y="36" width="36" height="8">
<path d="M230.956 36.4366H260.68C263.175 36.4366 265.195 38.0758 265.195 40.0914C265.195 42.1082 263.175 43.7441 260.68 43.7441H237.349L230.956 36.4366Z" fill="white"/>
</mask>
<g mask="url(#mask2_20_1008)">
<path d="M230.956 36.4366H260.68C263.175 36.4366 265.195 38.0758 265.195 40.0914C265.195 42.1082 263.175 43.7441 260.68 43.7441H237.349L230.956 36.4366Z" fill="url(#paint1_linear_20_1008)"/>
</g>
<path d="M260.68 38.7267C261.928 38.7267 262.796 39.447 262.796 40.0914C262.796 40.7347 261.928 41.4549 260.68 41.4549C260.68 41.4549 240.503 41.4549 238.471 41.4549C237.993 40.9126 237.278 40.0882 236.085 38.7267C243.11 38.7267 260.68 38.7267 260.68 38.7267ZM225.828 34.1464L236.229 46.0364H260.68C264.494 46.0364 267.592 43.3696 267.592 40.0914C267.592 36.8121 264.494 34.1464 260.68 34.1464H225.828Z" fill="#363254"/>
<path d="M269.879 27.9413C273.966 26.0124 278.742 26.4845 280.558 28.9942C282.365 31.5105 280.52 35.1038 276.435 37.0404C272.356 38.9673 261.663 41.298 259.849 38.7784C258.034 36.2686 265.799 29.8692 269.879 27.9413Z" fill="#8B9DD7"/>
<path d="M270.938 29.9943C274.109 28.499 277.59 28.9206 278.583 30.2962C278.859 30.6816 278.923 31.1241 278.778 31.6531C278.523 32.6083 277.491 33.9851 275.369 34.9896C271.429 36.8494 264.431 37.9407 262.269 37.4137C263.066 35.6384 267.443 31.6477 270.938 29.9943ZM268.818 25.8894C265.4 27.5 258.449 32.6348 257.35 36.6936L257.878 40.0783C261.162 44.6476 274.408 40.5536 277.496 39.0924C280.573 37.6377 282.732 35.3453 283.421 32.8026C283.913 30.9901 283.598 29.1775 282.53 27.6965C280.028 24.2317 274.008 23.439 268.818 25.8894Z" fill="#363254"/>
<path d="M277.14 42.7692C281.522 44.2184 283.961 47.5744 282.609 50.2686C281.246 52.9661 276.597 53.9674 272.218 52.5139C267.847 51.0679 259.054 45.6159 260.411 42.9251C261.774 40.222 272.767 41.32 277.14 42.7692Z" fill="#8B9DD7"/>
<path d="M276.353 44.9318H276.356C278.71 45.7147 279.999 47.0156 280.416 47.9752C280.735 48.7086 280.52 49.139 280.447 49.2794C279.726 50.7089 276.385 51.4708 273.004 50.3499C269.141 49.073 263.945 45.4753 262.967 43.8197C264.78 43.2181 272.127 43.5299 276.353 44.9318ZM258.252 41.9314L258.255 45.2546C259.943 49.139 267.731 53.4546 271.435 54.681C277.007 56.5308 282.866 55.0301 284.767 51.2699C285.172 50.4585 285.373 49.588 285.373 48.7053C285.373 47.8731 285.197 47.0321 284.839 46.2088C283.766 43.7439 281.246 41.7053 277.923 40.6074C274.609 39.5063 260.758 36.9613 258.252 41.9314Z" fill="#363254"/>
<path d="M277.78 34.466C284.281 34.4242 289.578 36.7451 289.601 39.6556C289.633 42.565 284.393 44.9561 277.889 44.9978C271.396 45.0416 256.685 42.7877 256.656 39.8806C256.626 36.9669 271.287 34.5143 277.78 34.466Z" fill="#8B9DD7"/>
<path d="M287.205 39.6775C287.205 39.7885 287.1 40.0047 286.81 40.288C285.634 41.433 282.332 42.678 277.875 42.7066C272.299 42.7438 263.48 41.2453 260.087 39.8543C263.457 38.4117 272.232 36.7946 277.799 36.7572C283.955 36.7166 287.2 38.9079 287.205 39.6775ZM277.765 32.1736H277.762C273.039 32.2076 259.014 33.8556 255.415 37.3489L254.26 39.9036C254.326 46.638 277.67 47.2902 277.907 47.2902C283.138 47.2539 287.861 45.8036 290.231 43.5015C291.404 42.3607 292.015 41.0257 292 39.6326C291.964 35.2619 285.976 32.1231 277.765 32.1736Z" fill="#363254"/>
<mask id="mask3_20_1008" style="mask-type:luminance" maskUnits="userSpaceOnUse" x="62" y="108" width="66" height="80">
<path d="M127.449 109.117V167.943C127.449 182.448 112.921 187.647 95.0048 187.647C77.0849 187.647 62.5645 182.448 62.5645 167.943V108.423" fill="white"/>
</mask>
<g mask="url(#mask3_20_1008)">
<path d="M127.449 109.117V167.943C127.449 182.448 112.921 187.647 95.0048 187.647C77.0849 187.647 62.5645 182.448 62.5645 167.943V108.423" fill="url(#paint2_linear_20_1008)"/>
</g>
<path d="M60.1677 108.423V167.943C60.1677 182.128 72.5364 189.937 95.0048 189.937C117.473 189.937 129.846 182.128 129.846 167.943V109.117C129.846 107.851 128.772 106.824 127.449 106.824C126.125 106.824 125.052 107.851 125.052 109.117V167.943C125.052 182.336 108.715 185.355 95.0048 185.355C81.2998 185.355 64.9622 182.336 64.9622 167.943V108.423C64.9622 107.159 63.8877 106.133 62.5645 106.133C61.2416 106.133 60.1677 107.159 60.1677 108.423Z" fill="#363254"/>
<path d="M76.7827 167.872C76.7827 173.74 73.3492 178.511 69.112 178.511C64.8742 178.511 61.4397 173.74 61.4397 167.872C61.4397 161.993 64.8742 148.72 69.112 148.72C73.3492 148.72 76.7827 161.993 76.7827 167.872Z" fill="#8B9DD7"/>
<path d="M62.2396 167.872C62.2396 161.479 65.8784 149.483 69.1118 149.483C72.3441 149.483 75.9841 161.479 75.9841 167.872C75.9841 173.32 72.903 177.749 69.1118 177.749C65.3234 177.749 62.2396 173.32 62.2396 167.872ZM60.6399 167.872C60.6399 174.159 64.4391 179.277 69.1118 179.277C73.783 179.277 77.5806 174.159 77.5806 167.872C77.5806 162.13 74.2066 147.953 69.1118 147.953C64.0183 147.953 60.6399 162.13 60.6399 167.872Z" fill="#363254"/>
<path d="M63.5061 168.933C63.5061 163.28 67.6582 153.102 70.6892 153.102C70.9796 153.102 71.264 153.247 71.538 153.464C70.7804 151.673 69.9126 150.488 68.9931 150.488C65.9601 150.488 63.5061 163.282 63.5061 168.933Z" fill="#A6BDE6"/>
<path d="M80.4006 173.524C80.4006 178.058 77.671 181.734 74.3012 181.734C70.9281 181.734 68.1946 178.058 68.1946 173.524C68.1946 168.977 70.9281 158.736 74.3012 158.736C77.671 158.736 80.4006 168.977 80.4006 173.524Z" fill="#8B9DD7"/>
<path d="M68.9933 173.524C68.9933 168.771 71.8603 159.501 74.3011 159.501C76.7425 159.501 79.6008 168.771 79.6008 173.524C79.6008 177.629 77.2221 180.971 74.3011 180.971C71.3728 180.971 68.9933 177.629 68.9933 173.524ZM67.3958 173.524C67.3958 178.472 70.4937 182.499 74.3011 182.499C78.103 182.499 81.1998 178.472 81.1998 173.524C81.1998 169.653 78.7519 157.972 74.3011 157.972C69.8434 157.972 67.3958 169.653 67.3958 173.524Z" fill="#363254"/>
<path d="M70.7606 170.823C70.4537 167.593 73.3146 162.229 75.5433 161.838C75.7521 161.81 75.9667 161.86 76.18 161.947C75.5268 161.019 74.7876 160.279 74.1542 160.569C71.948 161.613 70.4537 167.603 70.7606 170.823Z" fill="#A6BDE6"/>
<mask id="mask4_20_1008" style="mask-type:luminance" maskUnits="userSpaceOnUse" x="161" y="109" width="66" height="80">
<path d="M226.704 109.835V168.66C226.704 183.166 212.177 188.362 194.26 188.362C176.342 188.362 161.815 183.166 161.815 168.66V109.141" fill="white"/>
</mask>
<g mask="url(#mask4_20_1008)">
<path d="M226.704 109.835V168.66C226.704 183.166 212.177 188.362 194.26 188.362C176.342 188.362 161.815 183.166 161.815 168.66V109.141" fill="url(#paint3_linear_20_1008)"/>
</g>
<path d="M159.416 109.141V168.66C159.416 182.842 171.791 190.654 194.26 190.654C204.372 190.654 212.483 189.072 218.365 185.955C225.388 182.231 229.1 176.251 229.1 168.66V109.835C229.1 108.57 228.027 107.544 226.704 107.544C225.38 107.544 224.309 108.57 224.309 109.835V168.66C224.309 174.653 221.602 178.999 216.036 181.95C210.947 184.645 203.417 186.072 194.26 186.072C180.552 186.072 164.214 183.048 164.214 168.66V109.141C164.214 107.874 163.138 106.848 161.815 106.848C160.492 106.848 159.416 107.874 159.416 109.141Z" fill="#363254"/>
<path d="M176.036 168.588C176.036 174.455 172.604 179.234 168.369 179.234C164.124 179.234 160.693 174.455 160.693 168.588C160.693 162.712 164.124 149.438 168.369 149.438C172.604 149.438 176.036 162.712 176.036 168.588Z" fill="#7483CA"/>
<path d="M161.491 168.588C161.491 165.588 162.4 160.841 163.7 157.05C165.146 152.826 166.935 150.201 168.369 150.201C171.598 150.201 175.239 162.196 175.239 168.588C175.239 174.038 172.157 178.469 168.369 178.469C164.576 178.469 161.491 174.038 161.491 168.588ZM162.18 156.574C160.834 160.501 159.892 165.444 159.892 168.588C159.892 174.877 163.694 179.997 168.369 179.997C173.038 179.997 176.835 174.877 176.835 168.588C176.835 162.845 173.461 148.674 168.369 148.674C165.489 148.674 163.415 152.968 162.18 156.574Z" fill="#363254"/>
<path d="M162.764 169.657C162.764 164.001 166.913 153.818 169.944 153.818C170.236 153.818 170.519 153.965 170.794 154.181C170.033 152.393 169.169 151.204 168.249 151.204C165.215 151.204 162.764 164.001 162.764 169.657Z" fill="#839AD6"/>
<path d="M179.657 174.239C179.657 178.78 176.929 182.448 173.556 182.448C170.185 182.448 167.453 178.78 167.453 174.239C167.453 169.692 170.185 159.453 173.556 159.453C176.929 159.453 179.657 169.692 179.657 174.239Z" fill="#7483CA"/>
<path d="M168.253 174.239C168.253 169.486 171.113 160.218 173.556 160.218C175.993 160.218 178.857 169.486 178.857 174.239C178.857 178.345 176.477 181.688 173.556 181.688C170.63 181.688 168.253 178.345 168.253 174.239ZM166.655 174.239C166.655 179.191 169.75 183.213 173.556 183.213C177.361 183.213 180.456 179.191 180.456 174.239C180.456 170.369 178.006 158.689 173.556 158.689C169.1 158.689 166.655 170.369 166.655 174.239Z" fill="#363254"/>
<path d="M170.018 171.54C169.707 168.312 172.569 162.95 174.799 162.556C175.009 162.528 175.225 162.575 175.435 162.666C174.782 161.736 174.042 160.996 173.409 161.286C171.201 162.33 169.707 168.32 170.018 171.54Z" fill="#839AD6"/>
<mask id="mask5_20_1008" style="mask-type:luminance" maskUnits="userSpaceOnUse" x="88" y="28" width="21" height="60">
<path d="M100.154 28.7746C112.79 49.129 111.443 66.3239 94.6068 75.3374C84.5267 80.7366 90.076 87.8575 90.076 87.8575" fill="white"/>
</mask>
<g mask="url(#mask5_20_1008)">
<path d="M100.154 28.7746C112.79 49.129 111.443 66.3239 94.6068 75.3374C84.5267 80.7366 90.076 87.8575 90.076 87.8575" fill="url(#paint4_linear_20_1008)"/>
</g>
<path d="M98.9316 26.8028C97.7909 27.4495 97.413 28.8559 98.0913 29.9438C105.125 41.2683 107.643 51.5247 105.375 59.5972C103.762 65.3358 99.741 69.9588 93.4372 73.3393C89.4522 75.4712 87.0754 78.161 86.3684 81.3295C85.4067 85.6353 88.0425 89.0816 88.1553 89.2254C88.9414 90.2343 90.4249 90.4385 91.4884 89.6975C92.5495 88.9553 92.7813 87.5248 92.0122 86.5038C92.0005 86.4839 90.5396 84.5023 91.0664 82.2429C91.4884 80.4359 93.0745 78.7857 95.7781 77.3366C103.257 73.3293 108.046 67.7642 110.006 60.7841C112.616 51.4905 109.925 40.0168 102.214 27.6042C101.54 26.5152 100.066 26.1584 98.9316 26.8028Z" fill="#080604"/>
<mask id="mask6_20_1008" style="mask-type:luminance" maskUnits="userSpaceOnUse" x="2" y="14" width="250" height="177">
<path d="M173.968 14.3443C173.968 14.3443 152.989 14.0995 76.336 16.6158C-0.312031 19.1309 2.51674 46.3613 2.39771 85.4674V179.528C2.39771 187.485 9.35604 190.693 17.9419 190.693C26.5265 190.693 33.4953 187.485 33.4953 179.528C33.4953 179.528 35.4747 152.651 37.1838 136.302C41.0068 76.9063 113.377 146.069 165.986 142.841C213.792 139.905 251.44 123.557 251.44 84.7044C251.44 45.8432 226.767 14.3443 173.968 14.3443Z" fill="white"/>
</mask>
<g mask="url(#mask6_20_1008)">
<path d="M173.968 14.3443C173.968 14.3443 152.989 14.0995 76.336 16.6158C-0.312031 19.1309 2.51674 46.3613 2.39771 85.4674V179.528C2.39771 187.485 9.35604 190.693 17.9419 190.693C26.5265 190.693 33.4953 187.485 33.4953 179.528C33.4953 179.528 35.4747 152.651 37.1838 136.302C41.0068 76.9063 113.377 146.069 165.986 142.841C213.792 139.905 251.44 123.557 251.44 84.7044C251.44 45.8432 226.767 14.3443 173.968 14.3443Z" fill="url(#paint5_linear_20_1008)"/>
</g>
<path d="M4.79442 179.528V85.4674C4.79442 85.4762 4.80048 81.3229 4.80048 81.3229C4.81347 45.1504 4.82385 21.2531 76.4165 18.9036C152.075 16.4225 173.727 16.6311 173.939 16.6323H173.968C198.072 16.6323 217.715 23.5159 230.772 36.5365C242.725 48.4528 249.042 65.1086 249.042 84.7044C249.042 126.641 203.793 138.223 165.833 140.555C145.854 141.778 122.289 131.992 101.497 123.355C78.1905 113.676 58.063 105.318 45.6708 112.574C39.1255 116.405 35.5678 124.121 34.793 136.161C33.1086 152.267 31.1227 179.095 31.1041 179.368C31.0984 187.248 22.8554 188.403 17.9419 188.403C13.0332 188.403 4.79442 187.248 4.79442 179.528ZM76.2551 14.3278C0.0302979 16.8276 0.0173146 43.8791 0.00606012 81.3197L0 85.4609V179.528C0 187.953 6.70813 192.99 17.9418 192.99C29.1855 192.99 35.8928 187.953 35.8928 179.528C35.9067 179.418 37.8831 152.654 39.5701 136.528C40.2493 126.003 43.0627 119.476 48.1745 116.48C58.4434 110.471 78.4223 118.77 99.5856 127.559C120.876 136.401 145.004 146.425 166.139 145.127C222.692 141.652 253.837 120.194 253.837 84.7044C253.837 63.9064 247.057 46.1549 234.234 33.3648C220.253 19.4229 199.411 12.0519 173.968 12.0519H173.997C173.787 12.0494 152.082 11.8334 76.2551 14.3278Z" fill="#363254"/>
<mask id="mask7_20_1008" style="mask-type:luminance" maskUnits="userSpaceOnUse" x="4" y="86" width="7" height="93">
<path d="M4.48887 88.0463C4.57069 96.8797 3.31668 174.035 8.23533 178.669C6.69 175.253 10.0707 100.504 10.0274 95.8061L9.98195 93.0569C9.98195 91.7483 9.98195 90.4584 9.98195 89.1739C8.086 88.48 6.24588 87.627 4.46939 86.6509L4.48887 88.0463Z" fill="white"/>
</mask>
<g mask="url(#mask7_20_1008)">
<path d="M4.48887 88.0463C4.57069 96.8797 3.31668 174.035 8.23533 178.669C6.69 175.253 10.0707 100.504 10.0274 95.8061L9.98195 93.0569C9.98195 91.7483 9.98195 90.4584 9.98195 89.1739C8.086 88.48 6.24588 87.627 4.46939 86.6509L4.48887 88.0463Z" fill="url(#paint6_linear_20_1008)"/>
</g>
<mask id="mask8_20_1008" style="mask-type:luminance" maskUnits="userSpaceOnUse" x="4" y="16" width="237" height="74">
<path d="M173.939 16.932C173.939 16.932 153.415 16.6926 78.4167 19.154C3.4218 21.6155 4.5728 48.9918 4.5728 85.7968L4.58838 87.1581C6.32417 88.1342 8.12317 88.9872 9.96934 89.6822C9.98665 54.8501 11.4817 29.2929 83.8163 26.9193C158.812 24.4578 179.342 24.6971 179.342 24.6971C208.022 24.6971 227.767 34.2904 240.062 49.2575C228.743 29.8889 207.314 16.932 173.939 16.932Z" fill="white"/>
</mask>
<g mask="url(#mask8_20_1008)">
<path d="M173.939 16.932C173.939 16.932 153.415 16.6926 78.4167 19.154C3.4218 21.6155 4.5728 48.9918 4.5728 85.7968L4.58838 87.1581C6.32417 88.1342 8.12317 88.9872 9.96934 89.6822C9.98665 54.8501 11.4817 29.2929 83.8163 26.9193C158.812 24.4578 179.342 24.6971 179.342 24.6971C208.022 24.6971 227.767 34.2904 240.062 49.2575C228.743 29.8889 207.314 16.932 173.939 16.932Z" fill="url(#paint7_linear_20_1008)"/>
</g>
<mask id="mask9_20_1008" style="mask-type:luminance" maskUnits="userSpaceOnUse" x="82" y="114" width="66" height="84">
<path d="M147.818 136.104V177.997C147.818 192.502 133.287 197.711 115.369 197.711C97.4512 197.711 82.928 192.502 82.928 177.997V114.234" fill="white"/>
</mask>
<g mask="url(#mask9_20_1008)">
<path d="M147.818 136.104V177.997C147.818 192.502 133.287 197.711 115.369 197.711C97.4512 197.711 82.928 192.502 82.928 177.997V114.234" fill="url(#paint8_linear_20_1008)"/>
</g>
<path d="M80.531 114.234V177.997C80.531 192.187 92.9066 200 115.369 200C137.839 200 150.217 192.187 150.217 177.997V136.104C150.217 134.84 149.141 133.813 147.818 133.813C146.496 133.813 145.421 134.84 145.421 136.104V177.997C145.421 192.397 129.08 195.419 115.369 195.419C101.665 195.419 85.3254 192.397 85.3254 177.997V114.234C85.3254 112.969 84.2515 111.943 82.9282 111.943C81.6044 111.943 80.531 112.969 80.531 114.234Z" fill="#363254"/>
<path d="M103.337 182.06C103.337 187.517 98.7556 191.942 93.099 191.942C87.4427 191.942 82.8599 187.517 82.8599 182.06C82.8599 176.597 87.4427 164.266 93.099 164.266C98.7556 164.266 103.337 176.597 103.337 182.06Z" fill="#8B9DD7"/>
<path d="M83.6595 182.06C83.6595 176.74 88.2237 165.026 93.0991 165.026C97.9748 165.026 102.539 176.74 102.539 182.06C102.539 187.091 98.3072 191.18 93.0991 191.18C87.8973 191.18 83.6595 187.091 83.6595 182.06ZM82.0601 182.06C82.0601 187.928 87.0121 192.707 93.0991 192.707C99.1869 192.707 104.138 187.928 104.138 182.06C104.138 176.526 99.4795 163.498 93.0991 163.498C86.7242 163.498 82.0601 176.526 82.0601 182.06Z" fill="#363254"/>
<path d="M84.6084 182.714C84.6084 177.826 90.3409 169.048 94.5349 169.048C94.9344 169.048 95.3223 169.174 95.7097 169.365C94.6531 167.82 93.4605 166.793 92.194 166.793C87.9982 166.793 84.6084 177.834 84.6084 182.714Z" fill="#A6BDE6"/>
<path d="M111.678 182.834C111.678 190.029 106.933 195.886 101.079 195.886C95.2162 195.886 90.4712 190.029 90.4712 182.834C90.4712 175.626 95.2162 159.353 101.079 159.353C106.933 159.353 111.678 175.626 111.678 182.834Z" fill="#8B9DD7"/>
<path d="M91.2695 182.834C91.2695 175.736 96.0145 160.115 101.079 160.115C106.142 160.115 110.88 175.736 110.88 182.834C110.88 189.607 106.484 195.12 101.079 195.12C95.6721 195.12 91.2695 189.607 91.2695 182.834ZM89.6716 182.834C89.6716 190.45 94.7898 196.65 101.079 196.65C107.366 196.65 112.478 190.45 112.478 182.834C112.478 175.599 107.664 158.591 101.079 158.591C94.4912 158.591 89.6716 175.599 89.6716 182.834Z" fill="#363254"/>
<path d="M93.3298 184.139C93.3298 177.199 99.0678 164.727 103.257 164.727C103.656 164.727 104.05 164.907 104.431 165.172C103.382 162.971 102.182 161.518 100.916 161.518C96.72 161.518 93.3298 177.209 93.3298 184.139Z" fill="#A6BDE6"/>
<path d="M117.242 186.708C117.242 191.803 113.827 195.933 109.612 195.933C105.399 195.933 101.983 191.803 101.983 186.708C101.983 181.588 105.399 170.074 109.612 170.074C113.827 170.074 117.242 181.588 117.242 186.708Z" fill="#8B9DD7"/>
<path d="M102.782 186.708C102.782 181.19 106.405 170.838 109.612 170.838C112.827 170.838 116.443 181.19 116.443 186.708C116.443 191.377 113.381 195.168 109.612 195.168C105.847 195.168 102.782 191.377 102.782 186.708ZM101.184 186.708C101.184 192.216 104.968 196.696 109.612 196.696C114.264 196.696 118.04 192.216 118.04 186.708C118.04 181.692 114.682 169.311 109.612 169.311C104.544 169.311 101.184 181.692 101.184 186.708Z" fill="#363254"/>
<path d="M105.192 183.666C104.806 180.028 108.381 173.996 111.167 173.561C111.43 173.518 111.697 173.58 111.966 173.68C111.148 172.632 110.224 171.8 109.433 172.131C106.672 173.305 104.806 180.039 105.192 183.666Z" fill="#A6BDE6"/>
<mask id="mask10_20_1008" style="mask-type:luminance" maskUnits="userSpaceOnUse" x="182" y="107" width="66" height="90">
<path d="M247.107 107.316V176.359C247.107 190.863 232.577 196.069 214.658 196.069C196.739 196.069 182.218 190.863 182.218 176.359V136.689" fill="white"/>
</mask>
<g mask="url(#mask10_20_1008)">
<path d="M247.107 107.316V176.359C247.107 190.863 232.577 196.069 214.658 196.069C196.739 196.069 182.218 190.863 182.218 176.359V136.689" fill="url(#paint9_linear_20_1008)"/>
</g>
<path d="M244.706 107.316V176.359C244.706 190.758 228.364 193.778 214.658 193.778C200.956 193.778 184.615 190.758 184.615 176.359V136.689C184.615 135.425 183.542 134.397 182.218 134.397C180.894 134.397 179.821 135.425 179.821 136.689V176.359C179.821 190.546 192.193 198.362 214.658 198.362C237.126 198.362 249.501 190.546 249.501 176.359V107.316C249.501 106.05 248.429 105.027 247.106 105.027C245.781 105.027 244.706 106.05 244.706 107.316Z" fill="#363254"/>
<path d="M202.628 180.42C202.628 185.874 198.045 190.298 192.389 190.298C186.733 190.298 182.15 185.874 182.15 180.42C182.15 174.958 186.733 162.625 192.389 162.625C198.045 162.625 202.628 174.958 202.628 180.42Z" fill="#8B9DD7"/>
<path d="M182.95 180.42C182.95 175.099 187.512 163.391 192.389 163.391C197.267 163.391 201.829 175.099 201.829 180.42C201.829 185.447 197.594 189.539 192.389 189.539C187.184 189.539 182.95 185.447 182.95 180.42ZM181.351 180.42C181.351 186.291 186.302 191.066 192.389 191.066C198.475 191.066 203.426 186.291 203.426 180.42C203.426 174.886 198.767 161.861 192.389 161.861C186.011 161.861 181.351 174.886 181.351 180.42Z" fill="#363254"/>
<path d="M183.897 181.072C183.897 176.187 189.629 167.409 193.824 167.409C194.224 167.409 194.611 167.533 194.999 167.721C193.943 166.178 192.752 165.152 191.483 165.152C187.289 165.152 183.897 176.193 183.897 181.072Z" fill="#A6BDE6"/>
<path d="M210.97 181.19C210.97 188.391 206.225 194.247 200.367 194.247C194.504 194.247 189.759 188.391 189.759 181.19C189.759 173.984 194.504 157.715 200.367 157.715C206.225 157.715 210.97 173.984 210.97 181.19Z" fill="#8B9DD7"/>
<path d="M190.559 181.19C190.559 174.093 195.3 158.477 200.367 158.477C205.432 158.477 210.17 174.093 210.17 181.19C210.17 187.966 205.771 193.482 200.367 193.482C194.957 193.482 190.559 187.966 190.559 181.19ZM188.96 181.19C188.96 188.81 194.076 195.007 200.367 195.007C206.653 195.007 211.767 188.81 211.767 181.19C211.767 173.961 206.955 156.947 200.367 156.947C193.776 156.947 188.96 173.961 188.96 181.19Z" fill="#363254"/>
<path d="M192.619 182.499C192.619 175.561 198.357 163.089 202.546 163.089C202.946 163.089 203.338 163.267 203.721 163.533C202.673 161.33 201.474 159.882 200.205 159.882C196.009 159.882 192.619 175.566 192.619 182.499Z" fill="#A6BDE6"/>
<path d="M216.53 185.067C216.53 190.165 213.116 194.293 208.903 194.293C204.689 194.293 201.273 190.165 201.273 185.067C201.273 179.95 204.689 168.432 208.903 168.432C213.116 168.432 216.53 179.95 216.53 185.067Z" fill="#8B9DD7"/>
<path d="M202.071 185.067C202.071 179.55 205.691 169.2 208.903 169.2C212.115 169.2 215.733 179.55 215.733 185.067C215.733 189.734 212.667 193.53 208.903 193.53C205.137 193.53 202.071 189.734 202.071 185.067ZM200.473 185.067C200.473 190.577 204.253 195.055 208.903 195.055C213.55 195.055 217.328 190.577 217.328 185.067C217.328 180.053 213.972 167.67 208.903 167.67C203.832 167.67 200.473 180.053 200.473 185.067Z" fill="#363254"/>
<path d="M204.482 182.028C204.096 178.388 207.672 172.358 210.458 171.921C210.719 171.88 210.988 171.937 211.256 172.041C210.437 170.99 209.514 170.165 208.722 170.489C205.961 171.663 204.096 178.4 204.482 182.028Z" fill="#A6BDE6"/>
<path d="M22.724 47.1079C21.8774 48.2475 22.176 49.8142 23.3963 50.6113C24.6119 51.4072 26.2874 51.1228 27.1332 49.9866C31.9539 43.4971 42.7969 41.7086 47.952 43.552C48.9791 43.9209 50.2772 43.7606 50.8447 43.1863C51.4118 42.6199 51.0409 41.858 50.0114 41.4901C42.9531 38.9628 29.1066 38.505 22.724 47.1079Z" fill="#363254"/>
<path d="M43.6183 75.6339C39.1663 76.5637 35.2411 74.0958 34.8549 70.1236C34.4701 66.145 37.7703 62.1696 42.2236 61.2309C46.6804 60.2977 50.6044 62.7591 50.9935 66.74C51.3757 70.7175 48.0764 74.6918 43.6183 75.6339ZM52.8245 66.2098C52.3783 61.5745 47.7426 58.7222 42.4599 59.8234C37.1838 60.9301 33.2643 65.5718 33.7075 70.2004C34.1517 74.8269 38.7888 77.6869 44.0655 76.5901C49.3478 75.4801 53.2686 70.8394 52.8245 66.2098Z" fill="#363254"/>
<path d="M50.7116 67.0606C51.0497 70.5572 48.1628 74.0594 44.2645 74.8762C40.3501 75.7019 36.9178 73.5258 36.569 70.0292C36.2336 66.5324 39.1208 63.0336 43.0209 62.2156C46.9315 61.3923 50.373 63.5606 50.7116 67.0606Z" fill="#FCFCFC"/>
<path d="M50.1402 67.0956C49.0844 64.4311 46.2808 62.8864 43.9031 63.6286C42.6288 64.0194 41.7555 64.9955 41.3486 66.2152L44.6722 67.8444L41.6187 70.028C42.7502 72.5412 45.4267 73.9836 47.7364 73.2669C50.1237 72.5159 51.195 69.7591 50.1402 67.0956Z" fill="#363254"/>
<path d="M47.6933 65.9539C48.2851 65.8693 48.9816 66.5785 49.2348 67.5633C49.4901 68.536 49.2154 69.4012 48.6106 69.4934C48.0125 69.5823 47.3172 68.8676 47.061 67.8861C46.8124 66.9146 47.093 66.0515 47.6933 65.9539Z" fill="white"/>
<path d="M38.0247 61.9378C33.8575 65.1239 32.5403 69.7514 35.3557 72.3742C35.1116 72.271 35.6431 72.9451 35.4179 72.82C30.9849 70.3848 30.2444 63.1543 34.3254 58.9002C37.8287 55.2442 48.3411 52.5336 48.2633 53.9432C47.8295 55.5604 44.7518 57.6134 40.9304 59.8442C39.7004 60.5369 38.8134 61.3362 38.0247 61.9378Z" fill="#363254"/>
<path d="M106.496 106.845C106.281 107.93 107.022 108.82 108.139 108.82H114.559C115.678 108.82 116.765 107.93 116.982 106.845L118.691 98.1147C118.906 97.0279 119.991 96.1397 121.112 96.1397H128.06C132.022 96.1397 135.282 95.727 137.839 94.9003C140.401 94.078 142.724 92.6924 144.821 90.7504C146.574 89.1518 147.999 87.3876 149.085 85.4542C150.171 83.5274 150.946 81.3977 151.402 79.0679C152.512 73.4161 151.419 69.2112 148.895 65.8528C145.724 61.648 137.634 61.4253 137.634 61.4253C136.528 61.2604 134.711 61.12 133.593 61.12H117.495C116.378 61.12 115.291 62.0114 115.074 63.0994L106.496 106.845ZM131.651 68.648C135.637 68.648 138.289 69.3781 139.617 70.835C140.943 72.2918 141.261 74.795 140.568 78.3378C139.84 82.0299 138.444 84.6682 136.376 86.2458C134.308 87.8223 128.954 88.3931 128.954 88.3931C127.84 88.514 126.016 88.6117 124.9 88.6117H122.589C121.472 88.6117 120.728 87.7213 120.943 86.6355L124.084 70.6264C124.296 69.5396 125.386 68.648 126.501 68.648H131.651Z" fill="#363254"/>
<path d="M106.496 106.845C106.281 107.93 107.022 108.82 108.139 108.82H114.559C115.678 108.82 116.765 107.93 116.982 106.845L118.691 98.1147C118.906 97.0279 119.991 96.1397 121.112 96.1397H128.06C132.022 96.1397 135.282 95.727 137.839 94.9003C140.401 94.078 142.724 92.6924 144.821 90.7504C146.574 89.1518 147.999 87.3876 149.085 85.4542C150.171 83.5274 150.946 81.3977 151.402 79.0679C152.512 73.4161 151.419 69.2112 148.895 65.8528C145.724 61.648 137.634 61.4253 137.634 61.4253C136.528 61.2604 134.711 61.12 133.593 61.12H117.495C116.378 61.12 115.291 62.0114 115.074 63.0994L106.496 106.845ZM131.651 68.648C135.637 68.648 138.289 69.3781 139.617 70.835C140.943 72.2918 141.261 74.795 140.568 78.3378C139.84 82.0299 138.444 84.6682 136.376 86.2458C134.308 87.8223 128.954 88.3931 128.954 88.3931C127.84 88.514 126.016 88.6117 124.9 88.6117H122.589C121.472 88.6117 120.728 87.7213 120.943 86.6355L124.084 70.6264C124.296 69.5396 125.386 68.648 126.501 68.648H131.651Z" stroke="white" stroke-width="5.29133"/>
<path d="M161.516 50.4169C161.729 49.3323 162.815 48.4429 163.932 48.4429H170.273C171.391 48.4429 172.13 49.3323 171.915 50.4169L170.204 59.1472C169.991 60.2352 170.735 61.12 171.849 61.12H177.05C178.168 61.12 179.993 61.2155 181.103 61.3286C181.103 61.3286 188.688 61.4165 191.148 64.1457C193.152 66.3679 194.024 69.4286 193.139 73.9421L189.175 94.1637C188.964 95.2505 187.874 96.1399 186.756 96.1399H180.253C179.135 96.1399 178.393 95.2505 178.608 94.1637L181.975 77.0095C182.186 75.9237 182.426 74.1308 182.509 73.0242C182.509 73.0242 182.658 70.9942 181.839 70.1237C181.023 69.2498 179.281 68.8149 176.619 68.8149H170.338C169.22 68.8149 168.135 69.7021 167.919 70.7889L163.339 94.1637C163.124 95.2505 162.038 96.1399 160.92 96.1399H154.579C153.461 96.1399 152.722 95.2505 152.934 94.1637L161.516 50.4169Z" fill="#363254"/>
<path d="M161.516 50.4169C161.729 49.3323 162.815 48.4429 163.932 48.4429H170.273C171.391 48.4429 172.13 49.3323 171.915 50.4169L170.204 59.1472C169.991 60.2352 170.735 61.12 171.849 61.12H177.05C178.168 61.12 179.993 61.2155 181.103 61.3286C181.103 61.3286 188.688 61.4165 191.148 64.1457C193.152 66.3679 194.024 69.4286 193.139 73.9421L189.175 94.1637C188.964 95.2505 187.874 96.1399 186.756 96.1399H180.253C179.135 96.1399 178.393 95.2505 178.608 94.1637L181.975 77.0095C182.186 75.9237 182.426 74.1308 182.509 73.0242C182.509 73.0242 182.658 70.9942 181.839 70.1237C181.023 69.2498 179.281 68.8149 176.619 68.8149H170.338C169.22 68.8149 168.135 69.7021 167.919 70.7889L163.339 94.1637C163.124 95.2505 162.038 96.1399 160.92 96.1399H154.579C153.461 96.1399 152.722 95.2505 152.934 94.1637L161.516 50.4169Z" stroke="white" stroke-width="5.29133"/>
<path d="M193.672 106.845C193.457 107.93 194.199 108.82 195.317 108.82H201.737C202.852 108.82 203.945 107.93 204.156 106.845L205.867 98.1147C206.082 97.0279 207.171 96.1397 208.285 96.1397H215.236C219.199 96.1397 222.456 95.727 225.02 94.9003C227.573 94.078 229.9 92.6924 231.996 90.7504C233.753 89.1518 235.173 87.3876 236.262 85.4542C237.349 83.5274 238.122 81.3977 238.579 79.0679C239.688 73.4161 238.684 69.1464 236.07 65.8528C232.826 61.7644 224.808 61.4253 224.808 61.4253C223.701 61.2604 221.884 61.12 220.767 61.12H204.669C203.553 61.12 202.463 62.0114 202.251 63.0994L193.672 106.845ZM218.831 68.648C222.812 68.648 225.466 69.3781 226.796 70.835C228.119 72.2918 228.436 74.795 227.743 78.3378C227.015 82.0299 225.624 84.6682 223.554 86.2458C221.482 87.8223 216.128 88.3931 216.128 88.3931C215.019 88.514 213.195 88.6117 212.075 88.6117H209.761C208.643 88.6117 207.907 87.7213 208.119 86.6355L211.256 70.6264C211.471 69.5396 212.56 68.648 213.677 68.648H218.831Z" fill="#363254"/>
<path d="M193.672 106.845C193.457 107.93 194.199 108.82 195.317 108.82H201.737C202.852 108.82 203.945 107.93 204.156 106.845L205.867 98.1147C206.082 97.0279 207.171 96.1397 208.285 96.1397H215.236C219.199 96.1397 222.456 95.727 225.02 94.9003C227.573 94.078 229.9 92.6924 231.996 90.7504C233.753 89.1518 235.173 87.3876 236.262 85.4542C237.349 83.5274 238.122 81.3977 238.579 79.0679C239.688 73.4161 238.684 69.1464 236.07 65.8528C232.826 61.7644 224.808 61.4253 224.808 61.4253C223.701 61.2604 221.884 61.12 220.767 61.12H204.669C203.553 61.12 202.463 62.0114 202.251 63.0994L193.672 106.845ZM218.831 68.648C222.812 68.648 225.466 69.3781 226.796 70.835C228.119 72.2918 228.436 74.795 227.743 78.3378C227.015 82.0299 225.624 84.6682 223.554 86.2458C221.482 87.8223 216.128 88.3931 216.128 88.3931C215.019 88.514 213.195 88.6117 212.075 88.6117H209.761C208.643 88.6117 207.907 87.7213 208.119 86.6355L211.256 70.6264C211.471 69.5396 212.56 68.648 213.677 68.648H218.831Z" stroke="white" stroke-width="5.29133"/>
<path d="M106.496 106.845C106.281 107.93 107.022 108.82 108.139 108.82H114.559C115.678 108.82 116.765 107.93 116.982 106.845L118.691 98.1147C118.906 97.0279 119.991 96.1397 121.112 96.1397H128.06C132.022 96.1397 135.282 95.727 137.839 94.9003C140.401 94.078 142.724 92.6924 144.821 90.7504C146.574 89.1518 147.999 87.3876 149.085 85.4542C150.171 83.5274 150.946 81.3977 151.402 79.0679C152.512 73.4161 151.419 69.2112 148.895 65.8528C145.724 61.648 137.634 61.4253 137.634 61.4253C136.528 61.2604 134.711 61.12 133.593 61.12H117.495C116.378 61.12 115.291 62.0114 115.074 63.0994L106.496 106.845ZM131.651 68.648C135.637 68.648 138.289 69.3781 139.617 70.835C140.943 72.2918 141.261 74.795 140.568 78.3378C139.84 82.0299 138.444 84.6682 136.376 86.2458C134.308 87.8223 128.954 88.3931 128.954 88.3931C127.84 88.514 126.016 88.6117 124.9 88.6117H122.589C121.472 88.6117 120.728 87.7213 120.943 86.6355L124.084 70.6264C124.296 69.5396 125.386 68.648 126.501 68.648H131.651Z" fill="#363254"/>
<path d="M161.516 50.4169C161.729 49.3323 162.815 48.4429 163.932 48.4429H170.273C171.391 48.4429 172.13 49.3323 171.915 50.4169L170.204 59.1472C169.991 60.2352 170.735 61.12 171.849 61.12H177.05C178.168 61.12 179.993 61.2155 181.103 61.3286C181.103 61.3286 188.688 61.4165 191.148 64.1457C193.152 66.3679 194.024 69.4286 193.139 73.9421L189.175 94.1637C188.964 95.2505 187.874 96.1399 186.756 96.1399H180.253C179.135 96.1399 178.393 95.2505 178.608 94.1637L181.975 77.0095C182.186 75.9237 182.426 74.1308 182.509 73.0242C182.509 73.0242 182.658 70.9942 181.839 70.1237C181.023 69.2498 179.281 68.8149 176.619 68.8149H170.338C169.22 68.8149 168.135 69.7021 167.919 70.7889L163.339 94.1637C163.124 95.2505 162.038 96.1399 160.92 96.1399H154.579C153.461 96.1399 152.722 95.2505 152.934 94.1637L161.516 50.4169Z" fill="#363254"/>
<path d="M193.672 106.845C193.457 107.93 194.199 108.82 195.317 108.82H201.737C202.852 108.82 203.945 107.93 204.156 106.845L205.867 98.1147C206.082 97.0279 207.171 96.1397 208.285 96.1397H215.236C219.199 96.1397 222.456 95.727 225.02 94.9003C227.573 94.078 229.9 92.6924 231.996 90.7504C233.753 89.1518 235.173 87.3876 236.262 85.4542C237.349 83.5274 238.122 81.3977 238.579 79.0679C239.688 73.4161 238.684 69.1464 236.07 65.8528C232.826 61.7644 224.808 61.4253 224.808 61.4253C223.701 61.2604 221.884 61.12 220.767 61.12H204.669C203.553 61.12 202.463 62.0114 202.251 63.0994L193.672 106.845ZM218.831 68.648C222.812 68.648 225.466 69.3781 226.796 70.835C228.119 72.2918 228.436 74.795 227.743 78.3378C227.015 82.0299 225.624 84.6682 223.554 86.2458C221.482 87.8223 216.128 88.3931 216.128 88.3931C215.019 88.514 213.195 88.6117 212.075 88.6117H209.761C208.643 88.6117 207.907 87.7213 208.119 86.6355L211.256 70.6264C211.471 69.5396 212.56 68.648 213.677 68.648H218.831Z" fill="#363254"/>
<mask id="mask11_20_1008" style="mask-type:luminance" maskUnits="userSpaceOnUse" x="63" y="2" width="68" height="100">
<path d="M63.3721 21.4552C63.3721 21.4552 82.3797 8.50798 94.3852 4.07041C98.2118 2.65525 125.82 -4.57091 130.296 42.6593C132.743 68.5196 128.337 86.3809 106.933 89.6162C94.1242 91.555 96.1076 101.013 96.1076 101.013" fill="white"/>
</mask>
<g mask="url(#mask11_20_1008)">
<path d="M63.3721 21.4552C63.3721 21.4552 82.3797 8.50798 94.3852 4.07041C98.2118 2.65525 125.82 -4.57091 130.296 42.6593C132.743 68.5196 128.337 86.3809 106.933 89.6162C94.1242 91.555 96.1076 101.013 96.1076 101.013" fill="url(#paint10_linear_20_1008)"/>
</g>
<path d="M93.5176 1.93393C81.3721 6.42531 62.7676 19.053 61.9792 19.5898C60.9032 20.3232 60.6512 21.7549 61.4209 22.7835C62.1879 23.8133 63.687 24.0527 64.7639 23.3182C64.9514 23.1942 83.6655 10.4896 95.2455 6.20573C95.6079 6.07399 104.13 3.01752 112.311 7.8712C120.827 12.9269 126.219 25.0254 127.912 42.8669C130.608 71.3806 124.222 84.6825 106.559 87.3558C101.552 88.1111 97.9072 90.0147 95.7217 93.0196C92.8523 96.9533 93.7172 101.282 93.7578 101.466C94.0179 102.696 95.2654 103.49 96.5572 103.254C97.8506 103.019 98.6994 101.819 98.4622 100.582C98.4563 100.56 97.9795 97.8942 99.6915 95.5886C101.11 93.6794 103.672 92.4301 107.308 91.8778C133.568 87.9079 134.666 63.3782 132.688 42.453C130.828 22.8461 124.819 9.90116 114.842 3.98036C104.824 -1.96459 94.6478 1.51675 93.5176 1.93393Z" fill="#363254"/>
<mask id="mask12_20_1008" style="mask-type:luminance" maskUnits="userSpaceOnUse" x="58" y="5" width="59" height="28">
<path d="M82.8159 18.0298C104.337 4.69623 116.285 11.514 116.285 11.514C106.927 3.03734 96.4007 5.84678 94.0727 6.71191C82.1081 11.1495 59.0017 27.5495 59.0017 27.5495C59.0017 27.5495 55.8773 33.0399 62.1034 31.8486C62.1034 31.8486 75.646 22.475 82.8159 18.0298Z" fill="white"/>
</mask>
<g mask="url(#mask12_20_1008)">
<path d="M82.8159 18.0298C104.337 4.69623 116.285 11.514 116.285 11.514C106.927 3.03734 96.4007 5.84678 94.0727 6.71191C82.1081 11.1495 59.0017 27.5495 59.0017 27.5495C59.0017 27.5495 55.8773 33.0399 62.1034 31.8486C62.1034 31.8486 75.646 22.475 82.8159 18.0298Z" fill="url(#paint11_linear_20_1008)"/>
</g>
<path d="M75.0499 80.9496C74.8629 91.7746 71.2454 101.632 65.603 106.661C63.043 108.945 60.1874 110.076 57.3375 109.938C56.4583 109.891 55.709 110.537 55.6583 111.379C55.6164 112.225 56.2924 112.94 57.1747 112.984C60.9085 113.171 64.5753 111.757 67.7851 108.895C74.0387 103.318 78.0463 92.6287 78.2454 80.9946C78.2626 80.1559 77.5605 79.4587 76.6765 79.4455C75.7928 79.4334 75.0658 80.1064 75.0499 80.9496Z" fill="#363254"/>
<path d="M81.9727 73.2196C80.769 75.9543 78.6654 77.6966 76.1962 77.9876C73.7891 78.2686 71.3433 77.1533 69.6518 75.0003C69.1249 74.3273 68.1194 74.1891 67.4142 74.6962C66.709 75.2012 66.5649 76.1585 67.0961 76.8315C69.4833 79.8737 73.0332 81.4383 76.5884 81.021C80.2258 80.5863 83.2593 78.1743 84.9211 74.4009C85.2617 73.6225 84.8761 72.7343 84.0656 72.4038C83.2502 72.0778 82.3174 72.4434 81.9727 73.2196Z" fill="#363254"/>
</g>
</g>
<defs>
<linearGradient id="paint0_linear_20_1008" x1="117.719" y1="71.0492" x2="213.575" y2="143.154" gradientUnits="userSpaceOnUse">
<stop stop-color="#8C9BD6"/>
<stop offset="1" stop-color="#505E9B"/>
</linearGradient>
<linearGradient id="paint1_linear_20_1008" x1="180.831" y1="-10.898" x2="277.485" y2="61.8064" gradientUnits="userSpaceOnUse">
<stop stop-color="#808FD0"/>
<stop offset="1" stop-color="#505E9B"/>
</linearGradient>
<linearGradient id="paint2_linear_20_1008" x1="74.0542" y1="127.354" x2="169.49" y2="199.143" gradientUnits="userSpaceOnUse">
<stop stop-color="#8C9BD6"/>
<stop offset="1" stop-color="#505E9B"/>
</linearGradient>
<linearGradient id="paint3_linear_20_1008" x1="110.204" y1="81.4822" x2="205.64" y2="153.27" gradientUnits="userSpaceOnUse">
<stop stop-color="#8C9BD6"/>
<stop offset="1" stop-color="#505E9B"/>
</linearGradient>
<linearGradient id="paint4_linear_20_1008" x1="115.179" y1="73.1307" x2="207.817" y2="142.815" gradientUnits="userSpaceOnUse">
<stop stop-color="#808FD0"/>
<stop offset="1" stop-color="#505E9B"/>
</linearGradient>
<linearGradient id="paint5_linear_20_1008" x1="99.1373" y1="95.9245" x2="195.478" y2="168.395" gradientUnits="userSpaceOnUse">
<stop stop-color="#8C9BD6"/>
<stop offset="1" stop-color="#505E9B"/>
</linearGradient>
<linearGradient id="paint6_linear_20_1008" x1="-33.7056" y1="72.1283" x2="29.7004" y2="165.403" gradientUnits="userSpaceOnUse">
<stop stop-color="#FAFAFD"/>
<stop offset="1" stop-color="#8892D2"/>
</linearGradient>
<linearGradient id="paint7_linear_20_1008" x1="72.0252" y1="-4.58298" x2="145.908" y2="104.104" gradientUnits="userSpaceOnUse">
<stop stop-color="#FAFAFD"/>
<stop offset="1" stop-color="#8892D2"/>
</linearGradient>
<linearGradient id="paint8_linear_20_1008" x1="72.5304" y1="129.716" x2="167.916" y2="201.468" gradientUnits="userSpaceOnUse">
<stop stop-color="#8C9BD6"/>
<stop offset="1" stop-color="#505E9B"/>
</linearGradient>
<linearGradient id="paint9_linear_20_1008" x1="115.977" y1="73.2712" x2="211.695" y2="145.272" gradientUnits="userSpaceOnUse">
<stop stop-color="#8C9BD6"/>
<stop offset="1" stop-color="#505E9B"/>
</linearGradient>
<linearGradient id="paint10_linear_20_1008" x1="121.729" y1="65.8672" x2="217.3" y2="137.757" gradientUnits="userSpaceOnUse">
<stop stop-color="#8C9BD6"/>
<stop offset="1" stop-color="#505E9B"/>
</linearGradient>
<linearGradient id="paint11_linear_20_1008" x1="70.212" y1="-3.44119" x2="145.72" y2="107.638" gradientUnits="userSpaceOnUse">
<stop stop-color="#FAFAFD"/>
<stop offset="1" stop-color="#8892D2"/>
</linearGradient>
<clipPath id="clip0_20_1008">
<rect width="292" height="200" fill="white"/>
</clipPath>
</defs>
</svg>
