<svg width="215" height="200" viewBox="0 0 215 200" fill="none" xmlns="http://www.w3.org/2000/svg">
<g clip-path="url(#clip0_23_1366)">
<path d="M130 110L115 0H113.88C59.3362 0.159239 15.1592 44.3362 15 98.88V100L130 110Z" fill="#ED6C47"/>
<path d="M116.12 0H115V100L165 120L215 100V98.88C214.841 44.3362 170.664 0.159239 116.12 0Z" fill="#FF8F6B"/>
<path d="M215 100V101.1C214.843 155.656 170.656 199.843 116.1 200H113.9C59.344 199.843 15.1566 155.656 15 101.1V100H215Z" fill="#D35230"/>
<path opacity="0.1" d="M120 49.1499V155.85C119.975 159.558 117.728 162.888 114.3 164.3C113.209 164.762 112.035 165 110.85 165H38.6001C37.2001 163.4 35.8502 161.7 34.6001 160C21.8616 143.007 14.9835 122.338 15.0001 101.1V98.8999C14.9709 79.744 20.5693 61.0014 31.1001 44.9999C32.2001 43.2999 33.3501 41.5999 34.6001 39.9999H110.85C115.888 40.0381 119.962 44.1124 120 49.1499Z" fill="black"/>
<path opacity="0.2" d="M115 54.1501V160.85C115 162.035 114.762 163.209 114.3 164.3C112.888 167.728 109.558 169.975 105.85 170H43.1499C41.568 168.394 40.05 166.726 38.5999 165C37.1999 163.4 35.8499 161.7 34.5999 160C21.8613 143.007 14.9833 122.338 14.9999 101.1V98.9C14.9706 79.7441 20.5691 61.0016 31.0999 45H105.85C110.888 45.0381 114.962 49.1124 115 54.1501Z" fill="black"/>
<path opacity="0.2" d="M115 54.1501V150.85C114.962 155.888 110.888 159.962 105.85 160H34.6001C21.8616 143.007 14.9835 122.338 15.0001 101.1V98.9001C14.9709 79.7442 20.5693 61.0017 31.1001 45.0001H105.85C110.888 45.0381 114.962 49.1124 115 54.1501Z" fill="black"/>
<path opacity="0.2" d="M110 54.1501V150.85C109.962 155.888 105.888 159.962 100.85 160H34.6001C21.8616 143.007 14.9835 122.338 15.0001 101.1V98.9001C14.9709 79.7442 20.5693 61.0017 31.1001 45.0001H100.85C105.888 45.0381 109.962 49.1124 110 54.1501Z" fill="black"/>
<path d="M9.16495 45H100.835C105.897 45 110 49.1034 110 54.1649V145.835C110 150.897 105.897 155 100.835 155H9.16495C4.10336 155 0 150.897 0 145.835V54.1649C0 49.1034 4.10336 45 9.16495 45Z" fill="url(#paint0_linear_23_1366)"/>
<path d="M56 69.445C61.9674 69.0423 67.8834 70.7757 72.69 74.3351C76.699 77.9141 78.8411 83.1367 78.5 88.5C78.5655 92.2283 77.572 95.8988 75.635 99.085C73.674 102.216 70.8487 104.714 67.5 106.275C63.6716 108.056 59.4861 108.935 55.2649 108.845H43.67V130.395H31.7949V69.445H56ZM43.66 99.5351H53.88C57.12 99.773 60.3348 98.8141 62.9151 96.8401C65.0492 94.7928 66.1678 91.9058 65.9701 88.9551C65.9701 82.2384 62.0667 78.8801 54.2601 78.8801H43.6601V99.5351H43.66Z" fill="white"/>
</g>
<defs>
<linearGradient id="paint0_linear_23_1366" x1="19.1092" y1="37.8387" x2="90.8908" y2="162.161" gradientUnits="userSpaceOnUse">
<stop stop-color="#CA4C28"/>
<stop offset="0.5" stop-color="#C5401E"/>
<stop offset="1" stop-color="#B62F14"/>
</linearGradient>
<clipPath id="clip0_23_1366">
<rect width="215" height="200" fill="white"/>
</clipPath>
</defs>
</svg>
