<svg width="450" height="200" viewBox="0 0 450 200" fill="none" xmlns="http://www.w3.org/2000/svg">
<g clip-path="url(#clip0_21_1298)">
<mask id="mask0_21_1298" style="mask-type:luminance" maskUnits="userSpaceOnUse" x="0" y="0" width="450" height="200">
<path d="M450 0H0V200H450V0Z" fill="white"/>
</mask>
<g mask="url(#mask0_21_1298)">
<path d="M170.964 98.4084C164.97 98.4084 160.094 100.182 156.357 103.727C152.621 107.275 150.725 111.926 150.725 117.624C150.725 120.578 151.196 123.27 152.124 125.738C153.051 128.21 154.495 130.501 156.436 132.57C158.376 134.641 162.261 137.455 168.051 141.032C175.156 145.366 179.805 148.884 182.036 151.63C184.269 154.374 185.376 157.25 185.376 160.248C185.376 164.262 184.054 167.467 181.336 169.876C178.614 172.286 174.973 173.486 170.459 173.486C165.698 173.486 161.551 171.809 157.99 168.478C154.428 165.143 152.629 160.732 152.59 155.201H150.376V175.272H152.59C153.266 173.371 154.201 172.399 155.425 172.399C156.014 172.399 157.394 172.805 159.544 173.564C164.772 175.422 169.066 176.319 172.441 176.319C178.257 176.319 183.221 174.284 187.358 170.148C191.487 166.012 193.573 161.025 193.573 155.201C193.573 150.687 192.196 146.67 189.495 143.168C186.792 139.662 181.536 135.584 173.684 130.901C166.925 126.843 162.539 123.539 160.514 120.963C158.487 118.39 157.445 115.545 157.445 112.422C157.445 109.045 158.687 106.332 161.136 104.309C163.585 102.284 166.793 101.281 170.808 101.281C175.327 101.281 179.094 102.621 182.075 105.318C185.052 108.02 186.774 111.764 187.279 116.576H189.495V99.1848H187.435C187.184 100.071 186.95 100.638 186.736 100.893C186.527 101.146 186.127 101.281 185.532 101.281C184.816 101.281 183.538 100.98 181.725 100.388C177.839 99.0807 174.258 98.4084 170.964 98.4084ZM243.336 98.4084C236.031 98.4084 229.399 100.129 223.407 103.571C217.406 107.008 212.656 111.779 209.15 117.857C205.646 123.934 203.906 130.389 203.906 137.267C203.906 146.508 206.933 154.74 213.035 161.957C219.14 169.168 226.456 173.661 234.945 175.388C236.885 176.399 239.662 179.007 243.297 183.23C247.393 187.995 250.857 191.431 253.708 193.478C256.555 195.525 259.628 197.026 262.876 198.02C266.126 199.01 269.641 199.496 273.442 199.496C278.044 199.496 282.165 198.696 285.795 197.05L284.979 195.031C282.872 195.79 280.625 196.157 278.259 196.157C275.047 196.157 271.801 195.098 268.547 192.974C265.299 190.843 261.235 186.779 256.388 180.784C254.111 177.912 252.537 176.099 251.649 175.388C260.937 173.575 268.573 169.077 274.53 161.878C280.484 154.683 283.464 146.471 283.464 137.267C283.464 126.339 279.573 117.154 271.85 109.666C264.119 102.177 254.612 98.4084 243.336 98.4084ZM288.515 98.4084L288.63 100.776C293.494 100.776 296.218 102.208 296.827 105.085C297.055 106.115 297.158 108.016 297.176 110.753L297.138 163.12C297.098 167.032 296.54 169.529 295.468 170.614C294.394 171.689 292.579 172.363 289.952 172.632L289.835 175H338.315L339.558 163.12H337.345C336.712 166.357 335.262 168.676 332.955 169.993C330.642 171.319 326.549 171.971 320.641 171.971H316.057C310.74 171.971 307.663 170.051 306.85 166.188C306.682 165.424 306.625 164.604 306.616 163.703L306.812 110.753C306.81 106.848 307.304 104.231 308.326 102.95C309.36 101.674 311.222 100.96 313.92 100.776L313.804 98.4084H288.515ZM244.112 101.281C252.352 101.281 259.078 104.524 264.274 111.064C269.469 117.606 272.044 126.573 272.044 137.927C272.044 148.686 269.431 157.301 264.196 163.781C258.961 170.258 251.994 173.486 243.336 173.486C235.018 173.486 228.273 170.158 223.097 163.471C217.925 156.783 215.366 148.099 215.366 137.422C215.366 126.45 217.957 117.667 223.174 111.102C228.389 104.545 235.372 101.281 244.112 101.281ZM355.602 112.539C354.42 112.539 353.518 112.938 352.845 113.742C352.155 114.543 351.943 115.514 352.183 116.693C352.417 117.836 353.062 118.838 354.088 119.682C355.107 120.525 356.207 120.963 357.389 120.963C358.533 120.963 359.404 120.525 360.031 119.682C360.657 118.838 360.848 117.836 360.614 116.693C360.373 115.514 359.75 114.543 358.788 113.742C357.815 112.938 356.747 112.539 355.602 112.539ZM387.573 120.575C385.564 128.298 381.208 132.478 374.52 133.153L374.599 135.365H382.407L382.251 161.529C382.264 166.002 382.4 168.981 382.717 170.497C383.487 174.125 385.857 175.97 389.827 175.97C395.569 175.97 401.59 172.476 407.89 165.489L405.987 163.858C401.438 168.46 397.417 170.769 393.905 170.769C391.747 170.769 390.408 169.528 389.904 167.081C389.766 166.486 389.71 165.791 389.71 164.984L389.787 135.365H401.713L401.598 131.832H389.827V120.575H387.573ZM433.684 130.435C427.014 130.435 421.588 133.671 417.369 140.101C413.172 146.542 411.873 153.678 413.523 161.529C414.495 166.128 416.429 169.693 419.389 172.205C422.345 174.716 426.094 175.97 430.577 175.97C434.751 175.97 440.562 174.914 443.007 172.788C445.459 170.661 447.719 167.217 449.806 162.499L448.135 160.753C444.806 166.872 438.09 169.953 433.024 169.953C426.059 169.953 421.794 166.135 420.204 158.54C419.998 157.571 419.844 156.529 419.738 155.435C428.023 154.124 434.302 151.802 438.54 148.447C442.775 145.089 447.026 141.532 446.232 137.771C445.76 135.538 444.599 133.781 442.814 132.453C441.005 131.127 436.308 130.435 433.684 130.435ZM360.769 130.707L346.395 134.006V136.569L351.368 135.948C353.777 135.948 355.194 137.037 355.642 139.207C355.792 139.934 355.887 140.955 355.913 142.236L355.758 165.722C355.717 168.971 355.357 170.861 354.631 171.429C353.899 171.996 351.97 172.282 348.843 172.282L348.765 174.496H371.568L371.53 172.282C368.361 172.282 366.307 172.032 365.392 171.545C364.492 171.061 363.872 170.179 363.605 168.827C363.399 167.855 363.308 166.176 363.294 163.858L363.372 130.707H360.769ZM430.033 135.055C431.421 135.055 432.762 135.59 434.112 136.646C435.443 137.698 436.254 138.868 436.52 140.139C437.82 146.384 432.281 150.701 419.816 153.106C419.461 148.553 420.249 144.42 422.264 140.683C424.262 136.95 426.865 135.055 430.033 135.055Z" fill="#003B57"/>
<path d="M138.769 8.74066H15.0731C6.78294 8.74066 0 15.5201 0 23.8044V160.123C0 168.406 6.78294 175.185 15.0731 175.185H96.5422C95.6174 134.677 109.46 56.0626 138.769 8.74066Z" fill="#0F80CC"/>
<path d="M134.274 13.135H15.073C9.1865 13.135 4.39624 17.9208 4.39624 23.8044V150.178C31.3929 139.824 71.9114 130.889 99.9275 131.294C105.557 101.878 122.104 44.226 134.274 13.135Z" fill="url(#paint0_linear_21_1298)"/>
<path d="M167.62 4.27948C159.148 -3.27021 148.892 -0.237607 138.768 8.74066C137.266 10.0745 135.766 11.5543 134.274 13.135C116.957 31.4938 100.882 65.5 95.8879 91.4704C97.8333 95.413 99.353 100.444 100.354 104.287C100.61 105.273 100.842 106.199 101.026 106.986C101.466 108.849 101.702 110.057 101.702 110.057C101.702 110.057 101.547 109.47 100.91 107.624C100.789 107.27 100.654 106.883 100.494 106.429C100.425 106.241 100.33 106.012 100.226 105.769C99.0965 103.144 95.9718 97.6056 94.5965 95.194C93.4203 98.6615 92.3807 101.905 91.5105 104.84C95.4807 112.099 97.9001 124.539 97.9001 124.539C97.9001 124.539 97.6903 123.733 96.6928 120.919C95.8071 118.43 91.3956 110.706 90.3506 108.901C88.563 115.495 87.8527 119.947 88.4933 121.031C89.7369 123.132 90.9212 126.757 91.9612 130.764C94.3106 139.794 95.9438 150.785 95.9438 150.785C95.9438 150.785 95.9966 151.514 96.0851 152.635C95.7588 160.217 95.9546 168.08 96.542 175.185C97.3205 184.591 98.7858 192.672 100.654 196.996L101.921 196.306C99.1789 187.785 98.0648 176.62 98.5527 163.742C99.2908 144.058 103.823 120.322 112.199 95.5807C126.348 58.2329 145.98 28.2671 163.947 13.9565C147.571 28.736 125.407 76.576 118.772 94.2919C111.343 114.13 106.078 132.747 102.905 150.584C108.379 133.862 126.08 126.675 126.08 126.675C126.08 126.675 134.761 115.975 144.906 100.689C138.829 102.075 128.85 104.446 125.508 105.849C120.577 107.916 119.249 108.621 119.249 108.621C119.249 108.621 135.219 98.9021 148.921 94.5015C167.765 64.8431 188.295 22.7096 167.62 4.27948Z" fill="#003B57"/>
</g>
</g>
<defs>
<linearGradient id="paint0_linear_21_1298" x1="79.2862" y1="15.9395" x2="79.2862" y2="142.557" gradientUnits="userSpaceOnUse">
<stop stop-color="#97D9F6"/>
<stop offset="0.920245" stop-color="#0F80CC"/>
<stop offset="1" stop-color="#0F80CC"/>
</linearGradient>
<clipPath id="clip0_21_1298">
<rect width="450" height="200" fill="white"/>
</clipPath>
</defs>
</svg>
