<svg width="327" height="200" viewBox="0 0 327 200" fill="none" xmlns="http://www.w3.org/2000/svg">
<mask id="mask0_17_693" style="mask-type:luminance" maskUnits="userSpaceOnUse" x="0" y="0" width="327" height="197">
<path d="M0 0H327V196.364H0V0Z" fill="white"/>
</mask>
<g mask="url(#mask0_17_693)">
<path fill-rule="evenodd" clip-rule="evenodd" d="M163.5 0C119.9 0 92.65 21.8182 81.75 65.4545C98.1 43.6364 117.175 35.4545 138.975 40.9091C151.413 44.0182 160.303 53.0545 170.143 63.0485C186.172 79.3333 204.726 98.1818 245.25 98.1818C288.85 98.1818 316.1 76.3636 327 32.7273C310.65 54.5455 291.575 62.7273 269.775 57.2727C257.337 54.1636 248.447 45.1273 238.607 35.1333C222.578 18.8485 204.024 0 163.5 0ZM81.75 98.1818C38.15 98.1818 10.9 120 0 163.636C16.35 141.818 35.425 133.636 57.225 139.091C69.6631 142.206 78.5527 151.236 88.3929 161.23C104.422 177.515 122.976 196.364 163.5 196.364C207.1 196.364 234.35 174.545 245.25 130.909C228.9 152.727 209.825 160.909 188.025 155.455C175.587 152.345 166.697 143.309 156.857 133.315C140.828 117.03 122.274 98.1818 81.75 98.1818Z" fill="#38BDF8"/>
</g>
</svg>
